<svg xmlns="http://www.w3.org/2000/svg" viewBox="0 0 680 300" width="680" height="300" role="img" aria-label="Refusal gate, hybrid: precision and recall against the threshold"><style>
.surface{fill:#fcfcfb}.ink{fill:#0b0b0b}.ink2{fill:#52514e}.muted{fill:#898781}
.grid{stroke:#e1e0d9}.axis{stroke:#c3c2b7}.rule{stroke:#52514e}
.p{stroke:#2a78d6}.r{stroke:#eb6834}.line{fill:none;stroke-width:2;stroke-linejoin:round;stroke-linecap:round}
.halo{paint-order:stroke;stroke:#fcfcfb;stroke-width:4px}
@media (prefers-color-scheme:dark){.surface{fill:#1a1a19}.ink{fill:#fff}.ink2{fill:#c3c2b7}
.grid{stroke:#2c2c2a}.axis{stroke:#383835}.rule{stroke:#c3c2b7}.p{stroke:#3987e5}.r{stroke:#d95926}
.halo{stroke:#1a1a19}}
text{font:12px system-ui,-apple-system,"Segoe UI",sans-serif}
</style>
<rect class="surface" width="680" height="300" rx="8"/>
<text class="ink" x="48" y="24" font-weight="600">Refusal gate, hybrid: precision and recall against the threshold</text>
<path class="line p" d="M48,44H68"/>
<text class="ink2" x="74" y="48">precision</text>
<path class="line r" d="M158,44H178"/>
<text class="ink2" x="184" y="48">recall</text>
<text class="ink2" x="48" y="64">dev: 30 questions, 7 to refuse</text>
<path class="axis" d="M48,252.0H328"/>
<text class="muted" x="40" y="256.0" text-anchor="end">0</text>
<path class="grid" d="M48,162.0H328"/>
<text class="muted" x="40" y="166.0" text-anchor="end">0.5</text>
<path class="grid" d="M48,72.0H328"/>
<text class="muted" x="40" y="76.0" text-anchor="end">1</text>
<text class="muted" x="48.0" y="270" text-anchor="middle">0</text>
<text class="muted" x="188.0" y="270" text-anchor="middle">0.5</text>
<text class="muted" x="328.0" y="270" text-anchor="middle">1</text>
<path class="line p" d="M50.0,72.0H51.4L51.4,162.0H54.2L54.2,132.0H208.2L208.2,162.0H230.4L230.4,180.0H235.5L235.5,162.0H307.6L307.6,174.9H309.5L309.5,162.0H310.4L310.4,172.0H317.7L317.7,162.0H317.8L317.8,170.2H320.2L320.2,177.0H322.5L322.5,182.8H322.6L322.6,187.7H322.7L322.7,192.0H323.1L323.1,195.8H324.4L324.4,199.1H324.8L324.8,202.0H325.5L325.5,204.6H325.6L325.6,207.0H325.9L325.9,200.6H326.0L326.0,202.9H326.1L326.1,205.0H326.6L326.6,199.5H327.0L327.0,201.6H327.2L327.2,203.5H327.3L327.3,205.3H327.6L327.6,207.0H327.9L327.9,208.6H327.9L327.9,210.0H328.0"/>
<path class="line r" d="M48.0,252.0H50.0L50.0,226.3H51.4L51.4,226.3H54.2L54.2,200.6H208.2L208.2,200.6H230.4L230.4,200.6H235.5L235.5,174.9H307.6L307.6,174.9H309.5L309.5,149.1H310.4L310.4,149.1H317.7L317.7,123.4H317.8L317.8,123.4H320.2L320.2,123.4H322.5L322.5,123.4H322.6L322.6,123.4H322.7L322.7,123.4H323.1L323.1,123.4H324.4L324.4,123.4H324.8L324.8,123.4H325.5L325.5,123.4H325.6L325.6,123.4H325.9L325.9,97.7H326.0L326.0,97.7H326.1L326.1,97.7H326.6L326.6,72.0H327.0L327.0,72.0H327.2L327.2,72.0H327.3L327.3,72.0H327.6L327.6,72.0H327.9L327.9,72.0H327.9L327.9,72.0H328.0"/>
<path class="rule" d="M317.8,72V252"/>
<text class="ink2 halo" x="313.8" y="90" text-anchor="end">t = 0.964</text>
<text class="ink2" x="368" y="64">test: 45 questions, 11 to refuse</text>
<path class="axis" d="M368,252.0H648"/>
<path class="grid" d="M368,162.0H648"/>
<path class="grid" d="M368,72.0H648"/>
<text class="muted" x="368.0" y="270" text-anchor="middle">0</text>
<text class="muted" x="508.0" y="270" text-anchor="middle">0.5</text>
<text class="muted" x="648.0" y="270" text-anchor="middle">1</text>
<path class="line p" d="M400.4,72.0H418.5L418.5,72.0H434.1L434.1,72.0H445.2L445.2,72.0H471.4L471.4,72.0H569.2L569.2,102.0H581.6L581.6,97.7H628.1L628.1,117.0H629.2L629.2,132.0H631.4L631.4,144.0H636.4L636.4,153.8H636.5L636.5,162.0H640.1L640.1,155.1H640.6L640.6,149.1H641.5L641.5,156.0H642.0L642.0,150.8H642.8L642.8,156.7H643.0L643.0,162.0H643.6L643.6,166.7H644.4L644.4,171.0H644.8L644.8,166.3H646.2L646.2,170.2H646.4L646.4,173.7H646.4L646.4,177.0H646.5L646.5,180.0H647.1L647.1,182.8H647.1L647.1,185.3H647.2L647.2,187.7H647.3L647.3,189.9H647.3L647.3,186.0H647.4L647.4,188.1H647.5L647.5,190.1H647.5L647.5,192.0H647.6L647.6,193.8H647.6L647.6,195.4H647.7L647.7,197.0H647.7L647.7,198.5H647.7L647.7,199.9H647.7L647.7,201.2H647.8L647.8,202.5H647.8L647.8,203.7H647.9L647.9,204.9H647.9L647.9,206.0H648.0L648.0,207.0H648.0L648.0,208.0H648.0"/>
<path class="line r" d="M368.0,252.0H400.4L400.4,235.6H418.5L418.5,219.3H434.1L434.1,202.9H445.2L445.2,186.5H471.4L471.4,170.2H569.2L569.2,170.2H581.6L581.6,153.8H628.1L628.1,153.8H629.2L629.2,153.8H631.4L631.4,153.8H636.4L636.4,153.8H636.5L636.5,153.8H640.1L640.1,137.5H640.6L640.6,121.1H641.5L641.5,121.1H642.0L642.0,104.7H642.8L642.8,104.7H643.0L643.0,104.7H643.6L643.6,104.7H644.4L644.4,104.7H644.8L644.8,88.4H646.2L646.2,88.4H646.4L646.4,88.4H646.4L646.4,88.4H646.5L646.5,88.4H647.1L647.1,88.4H647.1L647.1,88.4H647.2L647.2,88.4H647.3L647.3,88.4H647.3L647.3,72.0H647.4L647.4,72.0H647.5L647.5,72.0H647.5L647.5,72.0H647.6L647.6,72.0H647.6L647.6,72.0H647.7L647.7,72.0H647.7L647.7,72.0H647.7L647.7,72.0H647.7L647.7,72.0H647.8L647.8,72.0H647.8L647.8,72.0H647.9L647.9,72.0H647.9L647.9,72.0H648.0L648.0,72.0H648.0L648.0,72.0H648.0"/>
<path class="rule" d="M637.8,72V252"/>
<text class="ink2 halo" x="633.8" y="90" text-anchor="end">t = 0.964</text>
<text class="muted" x="348" y="288" text-anchor="middle">threshold: refuse when the top hit's score is below it</text></svg>
